{
  "accessors": [
    {
      "bufferView": 2,
      "componentType": 5126,
      "count": 83,
      "max": [
        6.459514141082764,
        3.5830769538879395,
        0.5806949734687805
      ],
      "min": [
        -1.633821964263916,
        0.43004798889160156,
        -1.478767991065979
      ],
      "type": "VEC3"
    },
    {
      "bufferView": 2,
      "byteOffset": 996,
      "componentType": 5126,
      "count": 83,
      "max": [
        0.972270131111145,
        0.8875308632850647,
        0.9704274535179138
      ],
      "min": [
        -0.9684192538261414,
        -0.980542778968811,
        -0.9448604583740234
      ],
      "type": "VEC3"
    },
    {
      "bufferView": 3,
      "componentType": 5126,
      "count": 83,
      "max": [
        0.9682968258857727,
        0.940015971660614,
        0.9802542328834534,
        1.0
      ],
      "min": [
        -0.9618536829948425,
        -0.9479876160621643,
        -0.9580433964729309,
        1.0
      ],
      "type": "VEC4"
    },
    {
      "bufferView": 1,
      "componentType": 5126,
      "count": 83,
      "max": [
        0.9647619724273682,
        0.5592160224914551
      ],
      "min": [
        0.3311240077018738,
        0.001803999999538064
      ],
      "type": "VEC2"
    },
    {
      "bufferView": 0,
      "componentType": 5125,
      "count": 336,
      "type": "SCALAR"
    },
    {
      "bufferView": 2,
      "byteOffset": 1992,
      "componentType": 5126,
      "count": 83,
      "max": [
        7.29836893081665,
        3.7694289684295654,
        0.13699999451637268
      ],
      "min": [
        -1.061249017715454,
        0.8074250221252441,
        -0.6578850150108337
      ],
      "type": "VEC3"
    },
    {
      "bufferView": 2,
      "byteOffset": 2988,
      "componentType": 5126,
      "count": 83,
      "max": [
        0.9702691435813904,
        0.9106914401054382,
        0.9653328657150269
      ],
      "min": [
        -0.9624046683311462,
        -0.9857895374298096,
        -0.9648584723472595
      ],
      "type": "VEC3"
    },
    {
      "bufferView": 3,
      "byteOffset": 1328,
      "componentType": 5126,
      "count": 83,
      "max": [
        0.984506368637085,
        0.9222798943519592,
        0.9725436568260193,
        1.0
      ],
      "min": [
        -0.9828006625175476,
        -0.9609851837158203,
        -0.9878855347633362,
        1.0
      ],
      "type": "VEC4"
    },
    {
      "bufferView": 1,
      "byteOffset": 664,
      "componentType": 5126,
      "count": 83,
      "max": [
        0.9981679916381836,
        0.5592160224914551
      ],
      "min": [
        0.31680700182914734,
        0.001803999999538064
      ],
      "type": "VEC2"
    },
    {
      "bufferView": 0,
      "byteOffset": 1344,
      "componentType": 5125,
      "count": 336,
      "type": "SCALAR"
    },
    {
      "bufferView": 2,
      "byteOffset": 3984,
      "componentType": 5126,
      "count": 99,
      "max": [
        2.9243180751800537,
        12.6753511428833,
        5.051648139953613
      ],
      "min": [
        -3.998116970062256,
        1.6933259963989258,
        -3.8068010807037354
      ],
      "type": "VEC3"
    },
    {
      "bufferView": 2,
      "byteOffset": 5172,
      "componentType": 5126,
      "count": 99,
      "max": [
        -0.3440329134464264,
        0.7021188139915466,
        0.9343617558479309
      ],
      "min": [
        -0.9969287514686584,
        -0.8100911378860474,
        -0.21377789974212646
      ],
      "type": "VEC3"
    },
    {
      "bufferView": 1,
      "byteOffset": 1328,
      "componentType": 5126,
      "count": 99,
      "max": [
        1.0,
        0.4559609889984131
      ],
      "min": [
        0.5028179883956909,
        0.054430000483989716
      ],
      "type": "VEC2"
    },
    {
      "bufferView": 0,
      "byteOffset": 2688,
      "componentType": 5125,
      "count": 480,
      "type": "SCALAR"
    },
    {
      "bufferView": 2,
      "byteOffset": 6360,
      "componentType": 5126,
      "count": 99,
      "max": [
        5.06289005279541,
        13.899706840515137,
        0.8105769753456116
      ],
      "min": [
        -5.4096479415893555,
        1.8038409948349,
        -5.133721828460693
      ],
      "type": "VEC3"
    },
    {
      "bufferView": 2,
      "byteOffset": 7548,
      "componentType": 5126,
      "count": 99,
      "max": [
        0.7539541125297546,
        0.6086457371711731,
        -0.438890278339386
      ],
      "min": [
        -0.8663040995597839,
        -0.7133145332336426,
        -0.9938681125640869
      ],
      "type": "VEC3"
    },
    {
      "bufferView": 1,
      "byteOffset": 2120,
      "componentType": 5126,
      "count": 99,
      "max": [
        0.5302940011024475,
        0.956695020198822
      ],
      "min": [
        0.047272998839616776,
        0.46212300658226013
      ],
      "type": "VEC2"
    },
    {
      "bufferView": 0,
      "byteOffset": 4608,
      "componentType": 5125,
      "count": 480,
      "type": "SCALAR"
    },
    {
      "bufferView": 2,
      "byteOffset": 8736,
      "componentType": 5126,
      "count": 100,
      "max": [
        2.383388042449951,
        12.661545753479004,
        5.137312889099121
      ],
      "min": [
        -2.465488910675049,
        1.199746012687683,
        -4.647655963897705
      ],
      "type": "VEC3"
    },
    {
      "bufferView": 2,
      "byteOffset": 9936,
      "componentType": 5126,
      "count": 100,
      "max": [
        0.9989763498306274,
        0.6943499445915222,
        0.17670798301696777
      ],
      "min": [
        0.6146460771560669,
        -0.683920681476593,
        -0.7836551070213318
      ],
      "type": "VEC3"
    },
    {
      "bufferView": 1,
      "byteOffset": 2912,
      "componentType": 5126,
      "count": 100,
      "max": [
        0.5311899781227112,
        0.5090789794921875
      ],
      "min": [
        0.0,
        0.0
      ],
      "type": "VEC2"
    },
    {
      "bufferView": 0,
      "byteOffset": 6528,
      "componentType": 5125,
      "count": 486,
      "type": "SCALAR"
    },
    {
      "bufferView": 2,
      "byteOffset": 11136,
      "componentType": 5126,
      "count": 65532,
      "max": [
        3.997994899749756,
        2.009183883666992,
        3.9671900272369385
      ],
      "min": [
        -3.210891008377075,
        1.077347993850708,
        -3.434813976287842
      ],
      "type": "VEC3"
    },
    {
      "bufferView": 2,
      "byteOffset": 797520,
      "componentType": 5126,
      "count": 65532,
      "max": [
        0.9997936487197876,
        0.9999220967292786,
        0.9991589784622192
      ],
      "min": [
        -0.9980672597885132,
        -0.9999958872795105,
        -0.9999492168426514
      ],
      "type": "VEC3"
    },
    {
      "bufferView": 1,
      "byteOffset": 3712,
      "componentType": 5126,
      "count": 65532,
      "max": [
        0.6904259920120239,
        0.6611570119857788
      ],
      "min": [
        0.023593999445438385,
        0.0
      ],
      "type": "VEC2"
    },
    {
      "bufferView": 0,
      "byteOffset": 8472,
      "componentType": 5125,
      "count": 324042,
      "type": "SCALAR"
    },
    {
      "bufferView": 2,
      "byteOffset": 1583904,
      "componentType": 5126,
      "count": 65532,
      "max": [
        3.886244058609009,
        2.0962140560150146,
        3.8816239833831787
      ],
      "min": [
        -3.530822992324829,
        1.2136549949645996,
        -3.511625051498413
      ],
      "type": "VEC3"
    },
    {
      "bufferView": 2,
      "byteOffset": 2370288,
      "componentType": 5126,
      "count": 65532,
      "max": [
        0.9997979998588562,
        0.999909520149231,
        0.9995645880699158
      ],
      "min": [
        -0.9992798566818237,
        -0.9999951124191284,
        -0.9999241232872009
      ],
      "type": "VEC3"
    },
    {
      "bufferView": 1,
      "byteOffset": 527968,
      "componentType": 5126,
      "count": 65532,
      "max": [
        0.999908983707428,
        0.6996030211448669
      ],
      "min": [
        0.04915999993681908,
        0.0
      ],
      "type": "VEC2"
    },
    {
      "bufferView": 0,
      "byteOffset": 1304640,
      "componentType": 5125,
      "count": 322896,
      "type": "SCALAR"
    },
    {
      "bufferView": 2,
      "byteOffset": 3156672,
      "componentType": 5126,
      "count": 54814,
      "max": [
        3.812199115753174,
        1.9644670486450195,
        3.179166078567505
      ],
      "min": [
        -3.466171979904175,
        1.065148949623108,
        -3.216238021850586
      ],
      "type": "VEC3"
    },
    {
      "bufferView": 2,
      "byteOffset": 3814440,
      "componentType": 5126,
      "count": 54814,
      "max": [
        0.9999538660049438,
        0.9992330074310303,
        0.9857516288757324
      ],
      "min": [
        -0.9968751072883606,
        -0.9999953508377075,
        -0.9981169104576111
      ],
      "type": "VEC3"
    },
    {
      "bufferView": 1,
      "byteOffset": 1052224,
      "componentType": 5126,
      "count": 54814,
      "max": [
        0.9835770130157471,
        0.6869540214538574
      ],
      "min": [
        -9.100000170292333e-05,
        0.0
      ],
      "type": "VEC2"
    },
    {
      "bufferView": 0,
      "byteOffset": 2596224,
      "componentType": 5125,
      "count": 272082,
      "type": "SCALAR"
    },
    {
      "bufferView": 2,
      "byteOffset": 4472208,
      "componentType": 5126,
      "count": 7731,
      "max": [
        5.611968040466309,
        2.9416770935058594,
        5.611968040466309
      ],
      "min": [
        -5.611968040466309,
        -8.70000003487803e-05,
        -5.611968040466309
      ],
      "type": "VEC3"
    },
    {
      "bufferView": 2,
      "byteOffset": 4564980,
      "componentType": 5126,
      "count": 7731,
      "max": [
        0.9997233748435974,
        1.0,
        0.9996596574783325
      ],
      "min": [
        -0.9997853636741638,
        -1.0,
        -0.9987022280693054
      ],
      "type": "VEC3"
    },
    {
      "bufferView": 3,
      "byteOffset": 2656,
      "componentType": 5126,
      "count": 7731,
      "max": [
        0.999671459197998,
        0.9999803304672241,
        0.9999903440475464,
        1.0
      ],
      "min": [
        -0.9649379253387451,
        -0.9938890933990479,
        -0.9996887445449829,
        1.0
      ],
      "type": "VEC4"
    },
    {
      "bufferView": 1,
      "byteOffset": 1490736,
      "componentType": 5126,
      "count": 7731,
      "max": [
        0.7312759757041931,
        0.9983199834823608
      ],
      "min": [
        0.00023400000645779073,
        0.0002500000118743628
      ],
      "type": "VEC2"
    },
    {
      "bufferView": 0,
      "byteOffset": 3684552,
      "componentType": 5125,
      "count": 42648,
      "type": "SCALAR"
    },
    {
      "bufferView": 2,
      "byteOffset": 4657752,
      "componentType": 5126,
      "count": 12062,
      "max": [
        3.6575629711151123,
        2.014420986175537,
        -1.2552920579910278
      ],
      "min": [
        -1.077728033065796,
        1.4571460485458374,
        -4.328411102294922
      ],
      "type": "VEC3"
    },
    {
      "bufferView": 2,
      "byteOffset": 4802496,
      "componentType": 5126,
      "count": 12062,
      "max": [
        0.9989430904388428,
        0.9999303817749023,
        0.9997698664665222
      ],
      "min": [
        -0.9988733530044556,
        -0.9999382495880127,
        -1.0
      ],
      "type": "VEC3"
    },
    {
      "bufferView": 3,
      "byteOffset": 126352,
      "componentType": 5126,
      "count": 12062,
      "max": [
        0.9998317956924438,
        0.9996587038040161,
        0.9998956322669983,
        1.0
      ],
      "min": [
        -0.9998673796653748,
        -0.9998638033866882,
        -0.9995100498199463,
        1.0
      ],
      "type": "VEC4"
    },
    {
      "bufferView": 1,
      "byteOffset": 1552584,
      "componentType": 5126,
      "count": 12062,
      "max": [
        0.9999290108680725,
        1.0
      ],
      "min": [
        0.0,
        0.0
      ],
      "type": "VEC2"
    },
    {
      "bufferView": 0,
      "byteOffset": 3855144,
      "componentType": 5125,
      "count": 35658,
      "type": "SCALAR"
    }
  ],
  "asset": {
    "extras": {
      "author": "Adam.White (https://sketchfab.com/Adam.White)",
      "license": "CC-BY-4.0 (http://creativecommons.org/licenses/by/4.0/)",
      "source": "https://sketchfab.com/3d-models/pork-belly-tonkotsu-ramen-201a411da599473192e9ce7a3b7cbf31",
      "title": "Pork Belly Tonkotsu Ramen"
    },
    "generator": "Sketchfab-12.41.0",
    "version": "2.0"
  },
  "bufferViews": [
    {
      "buffer": 0,
      "byteLength": 3997776,
      "name": "floatBufferViews",
      "target": 34963
    },
    {
      "buffer": 0,
      "byteLength": 1649080,
      "byteOffset": 3997776,
      "byteStride": 8,
      "name": "floatBufferViews",
      "target": 34962
    },
    {
      "buffer": 0,
      "byteLength": 4947240,
      "byteOffset": 5646856,
      "byteStride": 12,
      "name": "floatBufferViews",
      "target": 34962
    },
    {
      "buffer": 0,
      "byteLength": 319344,
      "byteOffset": 10594096,
      "byteStride": 16,
      "name": "floatBufferViews",
      "target": 34962
    }
  ],
  "buffers": [
    {
      "byteLength": 10913440,
      "uri": "scene.bin"
    }
  ],
  "images": [
    {
      "uri": "textures/blinn2SG_baseColor.jpeg"
    },
    {
      "uri": "textures/blinn2SG_metallicRoughness.png"
    },
    {
      "uri": "textures/blinn1SG_baseColor.jpeg"
    },
    {
      "uri": "textures/blinn1SG_metallicRoughness.png"
    },
    {
      "uri": "textures/blinn1SG_emissive.jpeg"
    },
    {
      "uri": "textures/blinn1SG_normal.png"
    },
    {
      "uri": "textures/blinn3SG_baseColor.png"
    },
    {
      "uri": "textures/blinn3SG_metallicRoughness.png"
    },
    {
      "uri": "textures/blinn3SG_emissive.jpeg"
    },
    {
      "uri": "textures/blinn3SG_normal.png"
    },
    {
      "uri": "textures/blinn4SG_baseColor.png"
    },
    {
      "uri": "textures/blinn4SG_metallicRoughness.png"
    }
  ],
  "materials": [
    {
      "doubleSided": true,
      "name": "blinn2SG",
      "occlusionTexture": {
        "index": 1,
        "strength": 0.5042384949729084
      },
      "pbrMetallicRoughness": {
        "baseColorTexture": {
          "index": 0
        },
        "metallicRoughnessTexture": {
          "index": 1
        },
        "roughnessFactor": 0.22160535906405446
      }
    },
    {
      "emissiveFactor": [
        1.0,
        1.0,
        1.0
      ],
      "emissiveTexture": {
        "index": 4
      },
      "name": "blinn1SG",
      "normalTexture": {
        "index": 5,
        "scale": 0.6298532220435101
      },
      "pbrMetallicRoughness": {
        "baseColorTexture": {
          "index": 2
        },
        "metallicRoughnessTexture": {
          "index": 3
        }
      }
    },
    {
      "alphaMode": "BLEND",
      "doubleSided": true,
      "emissiveFactor": [
        1.0,
        1.0,
        1.0
      ],
      "emissiveTexture": {
        "index": 8
      },
      "name": "blinn3SG",
      "normalTexture": {
        "index": 9
      },
      "occlusionTexture": {
        "index": 7
      },
      "pbrMetallicRoughness": {
        "baseColorTexture": {
          "index": 6
        },
        "metallicRoughnessTexture": {
          "index": 7
        }
      }
    },
    {
      "alphaMode": "BLEND",
      "doubleSided": true,
      "name": "blinn4SG",
      "pbrMetallicRoughness": {
        "baseColorTexture": {
          "index": 10
        },
        "metallicFactor": 0.0,
        "metallicRoughnessTexture": {
          "index": 11
        }
      }
    }
  ],
  "meshes": [
    {
      "name": "defaultMaterial",
      "primitives": [
        {
          "attributes": {
            "NORMAL": 1,
            "POSITION": 0,
            "TANGENT": 2,
            "TEXCOORD_0": 3
          },
          "indices": 4,
          "material": 1,
          "mode": 4
        }
      ]
    },
    {
      "name": "defaultMaterial",
      "primitives": [
        {
          "attributes": {
            "NORMAL": 6,
            "POSITION": 5,
            "TANGENT": 7,
            "TEXCOORD_0": 8
          },
          "indices": 9,
          "material": 1,
          "mode": 4
        }
      ]
    },
    {
      "name": "defaultMaterial",
      "primitives": [
        {
          "attributes": {
            "NORMAL": 11,
            "POSITION": 10,
            "TEXCOORD_0": 12
          },
          "indices": 13,
          "material": 3,
          "mode": 4
        }
      ]
    },
    {
      "name": "defaultMaterial",
      "primitives": [
        {
          "attributes": {
            "NORMAL": 15,
            "POSITION": 14,
            "TEXCOORD_0": 16
          },
          "indices": 17,
          "material": 3,
          "mode": 4
        }
      ]
    },
    {
      "name": "defaultMaterial",
      "primitives": [
        {
          "attributes": {
            "NORMAL": 19,
            "POSITION": 18,
            "TEXCOORD_0": 20
          },
          "indices": 21,
          "material": 3,
          "mode": 4
        }
      ]
    },
    {
      "name": "defaultMaterial",
      "primitives": [
        {
          "attributes": {
            "NORMAL": 23,
            "POSITION": 22,
            "TEXCOORD_0": 24
          },
          "indices": 25,
          "material": 0,
          "mode": 4
        }
      ]
    },
    {
      "name": "defaultMaterial",
      "primitives": [
        {
          "attributes": {
            "NORMAL": 27,
            "POSITION": 26,
            "TEXCOORD_0": 28
          },
          "indices": 29,
          "material": 0,
          "mode": 4
        }
      ]
    },
    {
      "name": "defaultMaterial",
      "primitives": [
        {
          "attributes": {
            "NORMAL": 31,
            "POSITION": 30,
            "TEXCOORD_0": 32
          },
          "indices": 33,
          "material": 0,
          "mode": 4
        }
      ]
    },
    {
      "name": "defaultMaterial",
      "primitives": [
        {
          "attributes": {
            "NORMAL": 35,
            "POSITION": 34,
            "TANGENT": 36,
            "TEXCOORD_0": 37
          },
          "indices": 38,
          "material": 1,
          "mode": 4
        }
      ]
    },
    {
      "name": "defaultMaterial",
      "primitives": [
        {
          "attributes": {
            "NORMAL": 40,
            "POSITION": 39,
            "TANGENT": 41,
            "TEXCOORD_0": 42
          },
          "indices": 43,
          "material": 2,
          "mode": 4
        }
      ]
    }
  ],
  "nodes": [
    {
      "children": [
        1
      ],
      "matrix": [
        1.0,
        0.0,
        0.0,
        0.0,
        0.0,
        2.220446049250313e-16,
        -1.0,
        0.0,
        0.0,
        1.0,
        2.220446049250313e-16,
        0.0,
        0.0,
        0.0,
        0.0,
        1.0
      ],
      "name": "Sketchfab_model"
    },
    {
      "children": [
        2,
        4,
        6,
        8,
        10,
        12
      ],
      "matrix": [
        1.0,
        0.0,
        0.0,
        0.0,
        0.0,
        -4.371139006309477e-08,
        0.999999999999999,
        0.0,
        0.0,
        -0.999999999999999,
        -4.371139006309477e-08,
        0.0,
        0.0,
        0.0,
        0.0,
        1.0
      ],
      "name": "Collada visual scene group"
    },
    {
      "children": [
        3
      ],
      "name": "Sushi:Mesh"
    },
    {
      "mesh": 0,
      "name": "defaultMaterial"
    },
    {
      "children": [
        5
      ],
      "name": "polySurface13"
    },
    {
      "mesh": 1,
      "name": "defaultMaterial"
    },
    {
      "children": [
        7
      ],
      "name": "pPlane3"
    },
    {
      "mesh": 2,
      "name": "defaultMaterial"
    },
    {
      "children": [
        9
      ],
      "name": "pPlane2"
    },
    {
      "mesh": 3,
      "name": "defaultMaterial"
    },
    {
      "children": [
        11
      ],
      "name": "pPlane1"
    },
    {
      "mesh": 4,
      "name": "defaultMaterial"
    },
    {
      "children": [
        13,
        14,
        15,
        16,
        17
      ],
      "name": "Noodles_Lo1"
    },
    {
      "mesh": 5,
      "name": "defaultMaterial"
    },
    {
      "mesh": 6,
      "name": "defaultMaterial"
    },
    {
      "mesh": 7,
      "name": "defaultMaterial"
    },
    {
      "mesh": 8,
      "name": "defaultMaterial"
    },
    {
      "mesh": 9,
      "name": "defaultMaterial"
    }
  ],
  "samplers": [
    {
      "magFilter": 9729,
      "minFilter": 9987,
      "wrapS": 10497,
      "wrapT": 10497
    }
  ],
  "scene": 0,
  "scenes": [
    {
      "name": "Sketchfab_Scene",
      "nodes": [
        0
      ]
    }
  ],
  "textures": [
    {
      "sampler": 0,
      "source": 0
    },
    {
      "sampler": 0,
      "source": 1
    },
    {
      "sampler": 0,
      "source": 2
    },
    {
      "sampler": 0,
      "source": 3
    },
    {
      "sampler": 0,
      "source": 4
    },
    {
      "sampler": 0,
      "source": 5
    },
    {
      "sampler": 0,
      "source": 6
    },
    {
      "sampler": 0,
      "source": 7
    },
    {
      "sampler": 0,
      "source": 8
    },
    {
      "sampler": 0,
      "source": 9
    },
    {
      "sampler": 0,
      "source": 10
    },
    {
      "sampler": 0,
      "source": 11
    }
  ]
}
